<svg width="40" height="40" viewBox="0 0 40 40" fill="none" xmlns="http://www.w3.org/2000/svg">
<path d="M15.5 9.16683C15.5 9.07842 15.5351 8.99364 15.5976 8.93113C15.6601 8.86862 15.7449 8.8335 15.8333 8.8335H24.1667C24.2551 8.8335 24.3399 8.86862 24.4024 8.93113C24.4649 8.99364 24.5 9.07842 24.5 9.16683C24.5 9.25524 24.4649 9.34002 24.4024 9.40253C24.3399 9.46504 24.2551 9.50016 24.1667 9.50016H15.8333C15.7449 9.50016 15.6601 9.46504 15.5976 9.40253C15.5351 9.34002 15.5 9.25524 15.5 9.16683ZM12.2643 13.9311C12.3268 13.8686 12.4116 13.8335 12.5 13.8335H27.5C27.5884 13.8335 27.6732 13.8686 27.7357 13.9311L28.0893 13.5776L27.7357 13.9311C27.7982 13.9936 27.8333 14.0784 27.8333 14.1668C27.8333 14.2552 27.7982 14.34 27.7357 14.4025C27.6732 14.465 27.5884 14.5002 27.5 14.5002H12.5C12.4116 14.5002 12.3268 14.465 12.2643 14.4025C12.2018 14.34 12.1667 14.2552 12.1667 14.1668C12.1667 14.0784 12.2018 13.9936 12.2643 13.9311ZM27.7357 17.7359L28.0893 18.0894L27.7357 17.7359C27.6732 17.7984 27.5884 17.8335 27.5 17.8335H12.5C12.4116 17.8335 12.3268 17.7984 12.2643 17.7359C12.2018 17.6734 12.1667 17.5886 12.1667 17.5002C12.1667 17.4118 12.2018 17.327 12.2643 17.2645C12.3268 17.2019 12.4116 17.1668 12.5 17.1668H27.5C27.5884 17.1668 27.6732 17.2019 27.7357 17.2645C27.7982 17.327 27.8333 17.4118 27.8333 17.5002C27.8333 17.5886 27.7982 17.6734 27.7357 17.7359ZM12.2643 20.5978C12.3268 20.5353 12.4116 20.5002 12.5 20.5002H27.5C27.5884 20.5002 27.6732 20.5353 27.7357 20.5978L28.0893 20.2442L27.7357 20.5978C27.7982 20.6603 27.8333 20.7451 27.8333 20.8335C27.8333 20.9219 27.7982 21.0067 27.7357 21.0692C27.6732 21.1317 27.5884 21.1668 27.5 21.1668H12.5C12.4116 21.1668 12.3268 21.1317 12.2643 21.0692C12.2018 21.0067 12.1667 20.9219 12.1667 20.8335C12.1667 20.7451 12.2018 20.6603 12.2643 20.5978Z" fill="#E1D8D8" stroke="black"/>
<path d="M25.8333 32.8335H25.3333V33.3335V35.8578L23.5569 34.9696L23.3333 34.8578L23.1097 34.9696L21.3333 35.8578V33.3335V32.8335H20.8333H11.6667C10.9152 32.8335 10.1945 32.535 9.6632 32.0036C9.13184 31.4723 8.83333 30.7516 8.83333 30.0002V6.66683C8.83333 5.91538 9.13184 5.19471 9.6632 4.66336C10.1945 4.13201 10.9152 3.8335 11.6667 3.8335H28.3333C29.0848 3.8335 29.8054 4.13201 30.3368 4.66336C30.8682 5.19471 31.1667 5.91538 31.1667 6.66683V30.0002C31.1667 30.7516 30.8682 31.4723 30.3368 32.0036C29.8054 32.535 29.0848 32.8335 28.3333 32.8335H25.8333ZM20.8333 32.1668H21.3333V31.6668V29.7052V29.5162L21.2083 29.3744C20.8477 28.9655 20.6127 28.4612 20.5315 27.922C20.4504 27.3828 20.5266 26.8316 20.7509 26.3346C20.9753 25.8377 21.3383 25.416 21.7963 25.1202C22.2544 24.8244 22.7881 24.667 23.3333 24.667C23.8786 24.667 24.4123 24.8244 24.8703 25.1202C25.3284 25.416 25.6914 25.8377 25.9157 26.3346C26.1401 26.8316 26.2163 27.3828 26.1351 27.922C26.054 28.4612 25.819 28.9655 25.4583 29.3744L25.3333 29.5162V29.7052V31.6668V32.1668H25.8333H28.3333C28.908 32.1668 29.4591 31.9386 29.8654 31.5322C30.2717 31.1259 30.5 30.5748 30.5 30.0002V6.66683C30.5 6.09219 30.2717 5.54109 29.8654 5.13477C29.4591 4.72844 28.908 4.50016 28.3333 4.50016H11.6667C11.092 4.50016 10.5409 4.72844 10.1346 5.13476C9.72827 5.54109 9.5 6.09219 9.5 6.66683V30.0002C9.5 30.5748 9.72827 31.1259 10.1346 31.5322C10.5409 31.9386 11.092 32.1668 11.6667 32.1668H20.8333ZM24.6667 30.7285V30.0834L24.042 30.2443C23.5771 30.364 23.0895 30.364 22.6247 30.2443L22 30.0834V30.7285V33.9702V34.7792L22.7236 34.4174L23.3333 34.1125L23.9431 34.4174L24.6667 34.7792V33.9702V30.7285ZM23.3333 29.6668C23.908 29.6668 24.4591 29.4386 24.8654 29.0322C25.2717 28.6259 25.5 28.0748 25.5 27.5002C25.5 26.9255 25.2717 26.3744 24.8654 25.9681C24.4591 25.5618 23.908 25.3335 23.3333 25.3335C22.7587 25.3335 22.2076 25.5618 21.8013 25.9681C21.3949 26.3744 21.1667 26.9255 21.1667 27.5002C21.1667 28.0748 21.3949 28.6259 21.8013 29.0322C22.2076 29.4386 22.7587 29.6668 23.3333 29.6668Z" fill="#E1D8D8" stroke="black"/>
</svg>
