<svg width="40" height="40" viewBox="0 0 40 40" fill="none" xmlns="http://www.w3.org/2000/svg">
<path d="M33.5983 10.4238L35.0767 9.49984H33.3333H6.66668H4.92328L6.40168 10.4238L19.735 18.7572L20 18.9228L20.265 18.7572L33.5983 10.4238ZM33.3333 30.4998H33.8333V29.9998V13.3332V12.431L33.0683 12.9092L20 21.0769L6.93168 12.9092L6.16668 12.431V13.3332V29.9998V30.4998H6.66668H33.3333ZM33.3333 7.1665C34.8905 7.1665 36.1667 8.44265 36.1667 9.99984V29.9998C36.1667 31.557 34.8905 32.8332 33.3333 32.8332H6.66668C5.10949 32.8332 3.83334 31.557 3.83334 29.9998V9.99984C3.83334 8.44265 5.10949 7.1665 6.66668 7.1665H33.3333Z" fill="#E1D8D8" stroke="black"/>
</svg>
