<svg width="40" height="40" viewBox="0 0 40 40" fill="none" xmlns="http://www.w3.org/2000/svg">
<path d="M27.3062 25.1735L27.3061 25.1736L27.3124 25.1756C29.2104 25.7912 31.2457 26.1333 33.35 26.1333C33.9739 26.1333 34.5 26.6595 34.5 27.2833V33.0333C34.5 33.4176 34.4004 33.8011 34.2095 34.0732C34.0328 34.325 33.7691 34.5 33.35 34.5C18.1593 34.5 5.5 21.857 5.5 6.65C5.5 6.19647 5.68371 5.93793 5.93204 5.77193C6.20674 5.5883 6.59485 5.5 6.98333 5.5H12.75C13.3739 5.5 13.9 6.02614 13.9 6.65C13.9 8.74985 14.2241 10.7852 14.8575 12.687C14.984 13.094 14.8941 13.5419 14.5889 13.8699L11.3592 16.6193L11.0655 16.8693L11.2328 17.2168C13.6343 22.2071 18.1362 26.5376 22.9514 28.8346L23.31 29.0057L23.5577 28.695L26.1566 25.4339C26.3026 25.2917 26.4845 25.1916 26.6831 25.1444C26.8894 25.0954 27.1053 25.1055 27.3062 25.1735Z" fill="#E1D8D8" stroke="black"/>
</svg>
