<svg width="112" height="94" viewBox="0 0 112 94" fill="none" xmlns="http://www.w3.org/2000/svg">
<path d="M96.8279 0.372984C96.191 0.386363 95.5507 0.48617 94.9122 0.681234C92.9436 1.28328 91.3562 2.69128 90.1615 4.55844C64.0775 14.3408 39.3453 23.3622 13.4958 32.9469C4.26539 36.3692 -1.51866 46.637 1.17604 56.1684C3.87144 65.6995 13.8063 70.1566 23.0318 66.678C48.4611 57.0915 72.8682 48.2061 98.5964 38.6749C98.7265 38.7317 98.859 38.7793 98.9901 38.8301C98.3811 39.6155 98.0079 40.6486 98.0079 41.7842C98.0079 44.2363 99.7348 46.2241 101.865 46.2241C103.995 46.2241 105.722 44.236 105.722 41.7842C105.722 40.6282 105.335 39.5793 104.707 38.7894C107.67 37.4877 109.67 34.2765 110.642 30.5218C111.699 26.4394 111.689 21.5167 110.506 16.4793C109.324 11.4414 107.176 7.17562 104.477 4.24778C102.452 2.05204 100 0.557879 97.4638 0.386629C97.2523 0.372715 97.0403 0.368703 96.8279 0.372984ZM96.9434 5.37134C97.0501 5.36954 97.1569 5.37267 97.2634 5.38071C98.5573 5.4765 100.01 6.27442 101.498 7.88792C103.482 10.0392 105.319 13.5512 106.313 17.7846C107.155 21.3701 107.243 24.8478 106.781 27.6453H94.5127C93.6953 25.9845 92.9992 24.0726 92.5088 21.9839C91.5149 17.7503 91.5684 13.6639 92.3424 10.6745C93.1163 7.68509 94.4625 5.99266 96.0274 5.51423C96.3264 5.42317 96.6342 5.37554 96.9434 5.37134ZM88.0151 9.93168C87.1284 13.8742 87.1979 18.5298 88.315 23.2892C88.663 24.776 89.108 26.2304 89.6463 27.64H54.4994C39.5303 33.1901 25.2477 38.4788 16.5333 41.7119C11.1318 43.715 8.3165 49.0454 9.4663 53.1089C10.6159 57.1729 15.6445 59.6199 21.0293 57.5908C36.576 51.7335 67.2836 40.3615 91.4117 31.4209C92.2857 32.9747 93.2707 34.3554 94.3449 35.521C94.3603 35.537 94.3763 35.5526 94.3914 35.5691C70.0159 44.6007 38.2243 56.3707 22.3801 62.3403C15.2153 65.0402 7.40657 61.9834 5.33337 54.6555C3.26017 47.3279 8.03016 39.6122 15.1969 36.9539C31.0144 31.0859 63.5871 19.0272 88.0151 9.93168ZM101.863 58.1506C97.9237 75.0762 92.4481 72.7261 92.4481 82.634C92.4481 88.617 96.6656 93.473 101.863 93.473C107.06 93.473 111.278 88.6173 111.278 82.634C111.278 71.9389 105.872 75.3773 101.863 58.1506Z" fill="black"/>
</svg>
