<svg width="40" height="40" viewBox="0 0 40 40" fill="none" xmlns="http://www.w3.org/2000/svg">
<path d="M20.7172 37.2734C20.507 37.4207 20.2566 37.4996 20 37.4996C19.7434 37.4996 19.493 37.4207 19.2828 37.2734H20.7172ZM20.7172 37.2734C21.25 36.9016 33.75 28.0156 33.75 16.25L20.7172 37.2734ZM19.5697 36.8639L19.569 36.8634C19.3204 36.6899 16.1 34.4034 12.9469 30.7097C9.78677 27.008 6.7501 21.9586 6.75 16.2503C6.75406 12.7373 8.15137 9.36944 10.6354 6.8854C13.1194 4.40144 16.4872 3.00414 20 3C23.5128 3.00413 26.8806 4.40144 29.3646 6.8854C31.8487 9.3695 33.246 12.7375 33.25 16.2506C33.2498 21.9587 30.2132 27.008 27.0531 30.7097C23.9 34.4034 20.6796 36.6899 20.431 36.8634L20.4303 36.8639C20.3042 36.9523 20.154 36.9996 20 36.9996C19.846 36.9996 19.6958 36.9523 19.5697 36.8639ZM23.0556 11.6769C22.1512 11.0726 21.0878 10.75 20 10.75C18.5413 10.75 17.1424 11.3295 16.1109 12.3609C15.0795 13.3924 14.5 14.7913 14.5 16.25C14.5 17.3378 14.8226 18.4012 15.4269 19.3056C16.0313 20.2101 16.8902 20.9151 17.8952 21.3313C18.9002 21.7476 20.0061 21.8565 21.073 21.6443C22.1399 21.4321 23.1199 20.9083 23.8891 20.1391C24.6583 19.3699 25.1821 18.3899 25.3943 17.323C25.6065 16.2561 25.4976 15.1502 25.0813 14.1452C24.6651 13.1402 23.9601 12.2813 23.0556 11.6769Z" fill="#E1D8D8" stroke="black"/>
</svg>
